<?xml version="1.0" encoding="UTF-8"?>
<svg xmlns="http://www.w3.org/2000/svg" xmlns:xlink="http://www.w3.org/1999/xlink" width="33.284pt" height="38.268pt" viewBox="0 0 33.284 38.268" version="1.1">
<defs>
<clipPath id="clip1">
  <path d="M 7 28 L 11 28 L 11 38.269531 L 7 38.269531 Z M 7 28 "/>
</clipPath>
<clipPath id="clip2">
  <path d="M 12 28 L 16 28 L 16 38.269531 L 12 38.269531 Z M 12 28 "/>
</clipPath>
<clipPath id="clip3">
  <path d="M 18 28 L 21 28 L 21 38.269531 L 18 38.269531 Z M 18 28 "/>
</clipPath>
<clipPath id="clip4">
  <path d="M 23 17 L 33.285156 17 L 33.285156 21 L 23 21 Z M 23 17 "/>
</clipPath>
</defs>
<g id="surface1">
<path style="fill:none;stroke-width:2.83466;stroke-linecap:butt;stroke-linejoin:miter;stroke:rgb(21.961975%,37.255859%,44.314575%);stroke-opacity:1;stroke-miterlimit:10;" d="M -3.544531 10.630094 L -3.544531 17.716031 " transform="matrix(1,0,0,-1,14.15,19.134)"/>
<path style="fill:none;stroke-width:2.83466;stroke-linecap:butt;stroke-linejoin:miter;stroke:rgb(21.961975%,37.255859%,44.314575%);stroke-opacity:1;stroke-miterlimit:10;" d="M 3.541406 10.630094 L 3.541406 17.716031 " transform="matrix(1,0,0,-1,14.15,19.134)"/>
<g clip-path="url(#clip1)" clip-rule="nonzero">
<path style="fill:none;stroke-width:2.83466;stroke-linecap:butt;stroke-linejoin:miter;stroke:rgb(21.961975%,37.255859%,44.314575%);stroke-opacity:1;stroke-miterlimit:10;" d="M -5.314063 -10.631625 L -5.314063 -17.717562 " transform="matrix(1,0,0,-1,14.15,19.134)"/>
</g>
<g clip-path="url(#clip2)" clip-rule="nonzero">
<path style="fill:none;stroke-width:2.83466;stroke-linecap:butt;stroke-linejoin:miter;stroke:rgb(21.961975%,37.255859%,44.314575%);stroke-opacity:1;stroke-miterlimit:10;" d="M -0.0015625 -10.631625 L -0.0015625 -17.717562 " transform="matrix(1,0,0,-1,14.15,19.134)"/>
</g>
<g clip-path="url(#clip3)" clip-rule="nonzero">
<path style="fill:none;stroke-width:2.83466;stroke-linecap:butt;stroke-linejoin:miter;stroke:rgb(21.961975%,37.255859%,44.314575%);stroke-opacity:1;stroke-miterlimit:10;" d="M 5.314844 -10.631625 L 5.314844 -17.717562 " transform="matrix(1,0,0,-1,14.15,19.134)"/>
</g>
<g clip-path="url(#clip4)" clip-rule="nonzero">
<path style="fill:none;stroke-width:2.83466;stroke-linecap:butt;stroke-linejoin:miter;stroke:rgb(64.312744%,79.214478%,78.039551%);stroke-opacity:1;stroke-miterlimit:10;" d="M 10.63125 0.0011875 L 17.717188 0.0011875 " transform="matrix(1,0,0,-1,14.15,19.134)"/>
</g>
<path style="fill-rule:nonzero;fill:rgb(87.841797%,92.939758%,95.684814%);fill-opacity:1;stroke-width:0.3985;stroke-linecap:butt;stroke-linejoin:miter;stroke:rgb(0%,0%,0%);stroke-opacity:1;stroke-miterlimit:10;" d="M -10.630469 -7.795687 L -10.630469 7.794156 C -10.630469 9.360563 -9.360938 10.630094 -7.794531 10.630094 L 7.795312 10.630094 C 9.361719 10.630094 10.63125 9.360563 10.63125 7.794156 L 10.63125 -7.795687 C 10.63125 -9.362094 9.361719 -10.631625 7.795312 -10.631625 L -7.794531 -10.631625 C -9.360938 -10.631625 -10.630469 -9.362094 -10.630469 -7.795687 Z M -10.630469 -7.795687 " transform="matrix(1,0,0,-1,14.15,19.134)"/>
</g>
</svg>
